<?xml version="1.0" encoding="utf-8"?>
<!-- Generator: Adobe Illustrator 19.0.0, SVG Export Plug-In . SVG Version: 6.00 Build 0)  -->
<svg version="1.1" id="Layer_1" xmlns="http://www.w3.org/2000/svg" xmlns:xlink="http://www.w3.org/1999/xlink" x="0px" y="0px"
	 viewBox="0 0 51 53.3" enable-background="new 0 0 51 53.3" xml:space="preserve">
<g id="XMLID_60_">
	<path id="XMLID_61_" fill="#58595B" d="M37.6,5.3C45.6,9.6,51,18,51,27.7c0,14.1-11.4,25.5-25.5,25.5S0,41.8,0,27.7
		C0,18,5.4,9.6,13.4,5.3l1.3,1.8C7.3,11,2.2,18.8,2.2,27.7C2.2,40.6,12.7,51,25.5,51s23.3-10.4,23.3-23.3c0-9-5.1-16.8-12.5-20.7
		C36.3,7.1,37.6,5.3,37.6,5.3z M26.6,0v32.9l8.3-10.2l1.7,1.5L25.5,37.7L14.4,24.2l1.6-1.5l8.3,10.2V0H26.6z"/>
</g>
</svg>
