<?xml version="1.0" encoding="utf-8"?>
<!-- Generator: Adobe Illustrator 19.0.0, SVG Export Plug-In . SVG Version: 6.00 Build 0)  -->
<svg version="1.1" id="Layer_1" xmlns="http://www.w3.org/2000/svg" xmlns:xlink="http://www.w3.org/1999/xlink" x="0px" y="0px"
	 viewBox="0 0 53.3 53.3" enable-background="new 0 0 53.3 53.3" xml:space="preserve">
<g id="XMLID_53_">
	<path id="XMLID_54_" fill="#58595B" d="M28.8,4.4c11.2,1.1,20,10.6,20,22.1c0,3.3-0.7,6.3-2,9.1l3.9,2.2c1.6-3.4,2.6-7.3,2.6-11.4
		c0-14-10.7-25.4-24.4-26.6C28.8,0,28.8,4.4,28.8,4.4z M6.4,35.7c-1.3-2.8-2-5.9-2-9.1c0-11.5,8.8-21,20-22.1V0
		C10.7,1.1,0,12.6,0,26.6c0,4.1,0.9,7.9,2.6,11.4C2.6,37.9,6.4,35.7,6.4,35.7z M44.6,39.5c-4,5.6-10.6,9.3-18,9.3s-14-3.7-18-9.3
		l-3.9,2.2c4.8,6.9,12.8,11.5,21.9,11.5c9.1,0,17-4.5,21.9-11.5C48.5,41.8,44.6,39.5,44.6,39.5z M26.6,8.8c-9.8,0-17.8,8-17.8,17.8
		s7.9,17.8,17.8,17.8s17.8-8,17.8-17.8S36.4,8.8,26.6,8.8z M22.2,33.2V19.9l13.3,7L22.2,33.2z"/>
</g>
</svg>
